<svg id="Capa_1" data-name="Capa 1" xmlns="http://www.w3.org/2000/svg" viewBox="0 0 209.92 256"><defs><style>.cls-1{fill:#fff;}</style></defs><title>logo-tec21</title><path class="cls-1" d="M27,147.66c.5-24.43,16.89-49.63,42.31-53.88,16.54-2.76,32-.58,45.47,10.34C132.06,118.2,136,138,130.65,158.38c-3.42,13-12.53,22.79-19.94,33.51C105.1,200,93,217.24,93,217.24h44.54V256H23.24c-.68-4.12.39-7.58,2.84-11.12q29.19-42.31,58-84.9c2.53-3.76,5.32-8,6.78-12.32,2.59-7.68-1.2-13.2-8.09-15.2-7.47-2.17-16.32,8.33-17.39,15.2Z" transform="translate(-23.04 0)"/><path class="cls-1" d="M209.67,216.86c-.11,3.26,4,3.36,4,3.36H233V256H142.51V220.22h19.72c3.1.1,4.34,0,4.32-3.47q-.24-40.23,0-80.47c0-3.67-1.25-4.67-4.56-4.55-3.8.13-7.61,0-11.42,0-3.59,0-5.68-1.91-5.73-5.47-.14-8.44-.19-16.88-.05-25.32.08-4.83,3.53-5.86,7.56-5.86h30.81c6.13,0,12.26,0,18.38,0,6.93.06,8.49,1.57,8.5,8.53" transform="translate(-23.04 0)"/><path class="cls-1" d="M201.63.57a29.78,29.78,0,0,1,8.3,1.89c11.24,4.36,18.83,12.12,22.25,23.83,1.17,4-.14,5.66-4.6,5.3a33.68,33.68,0,0,0-6.27,0c-5.72.6-9.71-.19-13.29-5.6-6.06-9.15-23.59-7.79-29.43,1.67-5.07,8.22-5.39,16.92-1.16,25.5,3.3,6.68,9,10.09,16.58,10.2,7.3.1,12.78-2.58,16.52-9.2,1.09-1.93,4-3.59,6.24-4,3.83-.64,7.85-.18,11.79-.15,4.7,0,5.57,2.91,2.93,9.58a37.25,37.25,0,0,1-34.19,23.3c-5.45.09-11,.34-16.12-1-22.79-5.78-35.3-31.42-27.28-54.45,4.7-13.5,14-22,27.53-26.11,2.08-.63,4.11-.54,6.25-.83A54.28,54.28,0,0,1,201.63.57Z" transform="translate(-23.04 0)"/><path class="cls-1" d="M92,41.65c0-11.65.15-23.3-.07-34.94C91.8,2.17,93.1.07,98,.07h39.57c4.69,0,6.37,2,6.26,6.63-.4,18,2.58,12.21-20.93,13.84a11.51,11.51,0,0,1-2.69-.13c-5-.83-6.44.79-6.38,4.49,0,3,.3,5.49,4.29,5.41,5.82-.1,11.65.14,17.47,0,4.39-.14,6,1.63,6.1,6.05.2,13.81.33,13.81-13.3,13.81-2.23,0-4.45,0-6.68,0-7.84,0-7.84,0-7.85,6.38,0,6.65,0,6.66,8.12,6.66,5.83,0,11.66.14,17.48,0,4-.12,5.46,1.57,5.38,5.51-.33,16.82,2.17,14-14,14.23C120,83,109.22,82.72,98.44,83c-4.83.12-6.7-1.36-6.57-6.4C92.17,65,92,53.3,92,41.65Z" transform="translate(-23.04 0)"/><path class="cls-1" d="M42.71,51.49c0-8.74-.11-17.47,0-26.21.07-3.76-1.35-5.31-5.13-5.1-3.24.19-6.51-.08-9.76,0-3.54.13-4.87-1.5-4.83-4.95C23.24-1.95,21.12.07,37.14.07H78.25C83,.07,85.1,1.72,85,6.77c-.23,15.62,1,13.46-13,13.34-5.14-.05-6.88,1.47-6.79,6.71.28,16.44.13,32.88.08,49.32,0,6.23-.55,6.71-6.74,6.76-3.6,0-7.21-.13-10.79,0-3.83.18-5.15-1.59-5.1-5.24.12-8.73,0-17.47,0-26.2Z" transform="translate(-23.04 0)"/></svg>